<?xml version="1.0" encoding="UTF-8" standalone="no"?>
<!-- Created with Inkscape (http://www.inkscape.org/) -->

<svg
   xmlns:svg="http://www.w3.org/2000/svg"
   xmlns="http://www.w3.org/2000/svg"
   xmlns:sodipodi="http://sodipodi.sourceforge.net/DTD/sodipodi-0.dtd"
   xmlns:inkscape="http://www.inkscape.org/namespaces/inkscape"
   width="16px"
   height="16px"
   viewBox="0 0 16 16"
   version="1.1"
   id="SVGRoot"
   inkscape:version="0.92.4 (5da689c313, 2019-01-14)"
   sodipodi:docname="img.svg">
  <defs
     id="defs71" />
  <sodipodi:namedview
     id="base"
     pagecolor="#ffffff"
     bordercolor="#666666"
     borderopacity="1.0"
     inkscape:pageopacity="0.0"
     inkscape:pageshadow="2"
     inkscape:zoom="22.627417"
     inkscape:cx="6.6194361"
     inkscape:cy="3.381116"
     inkscape:document-units="px"
     inkscape:current-layer="layer3"
     showgrid="false"
     inkscape:window-width="1152"
     inkscape:window-height="801"
     inkscape:window-x="-8"
     inkscape:window-y="-8"
     inkscape:window-maximized="1"
     inkscape:grid-bbox="true"
     showguides="false"
     inkscape:snap-smooth-nodes="true" />
  <g
     inkscape:label="bg"
     inkscape:groupmode="layer"
     id="layer1"
     style="display:inline">
    <ellipse
       style="fill:#2e7d32;fill-opacity:0.92964825;stroke-width:1.3162998"
       id="path99"
       cx="8.0222979"
       cy="7.8442082"
       rx="6.75"
       ry="6.9066534"
       transform="matrix(1,0,-0.01081018,0.99994157,0,0)" />
  </g>
  <g
     inkscape:groupmode="layer"
     id="layer2"
     inkscape:label="magnify"
     style="display:inline">
    <path
       style="display:inline;fill:#ffffff;fill-opacity:1;stroke-width:1.31475139"
       d="M 8.5546823,3.3808528 A 3.3039975,3.4731917 0 0 0 5.2499948,6.853509 3.3039975,3.4731917 0 0 0 5.9960886,9.0488216 L 3.9531198,11.105462 4.5742136,11.720697 6.6171823,9.6640558 a 3.3039975,3.4731917 0 0 0 1.9375,0.6640632 3.3039975,3.4731917 0 0 0 3.3027347,-3.47461 3.3039975,3.4731917 0 0 0 -3.3027347,-3.4726562 z m -0.027344,0.5625 A 2.7102475,2.8794417 0 0 1 11.236323,6.822259 2.7102475,2.8794417 0 0 1 8.5273386,9.7031188 2.7102475,2.8794417 0 0 1 5.816401,6.822259 2.7102475,2.8794417 0 0 1 8.5273383,3.9433528 Z"
       id="magnify"
       inkscape:connector-curvature="0" />
  </g>
  <g
     inkscape:groupmode="layer"
     id="layer3"
     inkscape:label="insect"
     style="display:inline">
    <path
       style="fill:#ffffff;fill-opacity:1;stroke-width:1.63103306"
       d="m 8.0229398,5.311199 a 0.09375,0.0859375 0 0 0 -0.087891,0.085937 0.09375,0.0859375 0 0 0 0.058594,0.080078 V 5.524089 5.596355 5.645183 5.658855 A 0.328125,0.3203125 0 0 0 7.7338773,5.858074 c -0.015261,-0.00362 -0.029525,-0.00862 -0.044922,-0.011719 -0.024213,-0.00497 -0.049891,-0.00928 -0.074219,-0.013672 -0.026793,-0.0067 -0.036563,0.030409 -0.00977,0.037109 0.024859,0.00457 0.049464,0.010545 0.074219,0.015625 0.013507,0.0028 0.027615,0.00463 0.041016,0.00781 a 0.328125,0.3203125 0 0 0 -0.011719,0.083984 0.328125,0.3203125 0 0 0 0.099609,0.2285156 1.1876243,0.86105163 48.070276 0 0 -0.080078,0.2480469 c -0.00872,-0.012297 -0.010242,-0.029297 -0.03125,-0.029297 h -0.076172 -0.091797 -0.052734 -0.044922 c -1.212e-4,-0.01366 -8.74e-5,-0.027356 0,-0.041016 1.065e-4,-0.016944 -1.34e-5,-0.033837 0,-0.050781 9.8e-6,-0.01698 8e-7,-0.033801 0,-0.050781 -2.9e-6,-0.071816 -0.1015655,-0.071815 -0.1015624,0 6e-7,0.016953 9.6e-6,0.033829 0,0.050781 -1.32e-5,0.016754 1.05e-4,0.034027 0,0.050781 -1.047e-4,0.016336 -2.98e-4,0.032493 0,0.048828 0.00106,0.028377 0.00581,0.0553 0.027344,0.076172 0.00595,0.00387 0.011178,0.00865 0.017578,0.011719 0.017178,0.00824 0.036314,0.00579 0.054687,0.00586 h 0.046875 0.052734 0.091797 0.076172 c 0.016945,0 0.016442,-0.014798 0.025391,-0.023438 a 1.1876243,0.86105163 48.070276 0 0 0.2265625,0.8007813 c -0.026458,0.016851 -0.053459,0.03225 -0.080078,0.048828 C 7.7916104,7.4030198 7.7134163,7.4508538 7.6323103,7.494789 7.5836873,7.52088 7.5338803,7.545791 7.485826,7.572914 7.466553,7.583484 7.44839,7.595427 7.429185,7.606117 7.422235,7.609827 7.416154,7.615357 7.409654,7.619789 7.388958,7.634109 7.396271,7.652721 7.397935,7.67057 c -0.00152,0.00453 -0.0016,0.005 -0.00195,0.00977 0.00338,0.011656 0.00403,0.01217 0.013672,0.019531 0.00609,0.016013 0.00578,0.036313 0.029297,0.041016 0.00208,5.156e-4 0.00381,0.00136 0.00586,0.00195 0.00543,0.00158 0.010625,0.00531 0.015625,0.00781 0.00879,0.00409 0.017541,0.00808 0.025391,0.013672 0.0094,0.00691 0.019537,0.015084 0.029297,0.021484 C 7.580047,7.827833 7.6386428,7.736037 7.573721,7.694006 7.565141,7.688616 7.55655,7.682338 7.54833,7.676428 7.54528,7.674268 7.54166,7.672658 7.53856,7.670568 c 0,0 0.00195,-0.00195 0.00195,-0.00195 0.047505,-0.026814 0.094511,-0.05233 0.1425782,-0.078125 0.083032,-0.045005 0.1652596,-0.092525 0.2441406,-0.1445313 0.028067,-0.017486 0.056123,-0.034907 0.083984,-0.052734 a 1.1876243,0.86105163 48.070276 0 0 0.4042968,0.375 c -0.00254,0.00652 -0.00522,0.01303 -0.00781,0.019531 -0.025479,0.063916 -0.050025,0.1282534 -0.072266,0.1933594 -0.011898,0.040758 -0.026564,0.080538 -0.039063,0.1210937 -0.00116,0.00336 -0.00369,0.011835 -0.00586,0.015625 0,0 -0.00195,0.00195 -0.00195,0.00195 -0.00151,0.00177 -0.00437,0.00407 -0.00586,0.00586 -0.00979,0.011131 -0.016174,0.023405 -0.021484,0.037109 -0.014792,0.048932 0.014761,0.077901 0.046875,0.109375 0.038555,0.033962 0.078699,0.064807 0.1210937,0.09375 0.025834,0.018089 0.054461,0.032384 0.080078,0.050781 0.010806,0.0082 0.023658,0.014374 0.035156,0.021484 0.00674,0.00444 0.013291,0.00853 0.019531,0.013672 0.062067,0.046137 0.1265251,-0.041755 0.064453,-0.087891 -0.00928,-0.00674 -0.017494,-0.013651 -0.027344,-0.019531 -0.00939,-0.00568 -0.020307,-0.011318 -0.029297,-0.017578 -0.026349,-0.01857 -0.05341,-0.034637 -0.080078,-0.052734 -0.037254,-0.025369 -0.073147,-0.050765 -0.1074219,-0.080078 -0.00317,-0.00303 -0.00661,-0.00673 -0.00977,-0.00977 0.00291,-0.00344 0.00727,-0.00592 0.00977,-0.00977 0.00809,-0.012452 0.013238,-0.02494 0.017578,-0.039062 0.012033,-0.039492 0.025677,-0.079445 0.037109,-0.1191407 0.021625,-0.063365 0.045531,-0.125295 0.070312,-0.1875 5.379e-4,-0.00135 0.00142,-0.00256 0.00195,-0.00391 a 1.1876243,0.86105163 48.070276 0 0 0.9433594,0.035156 1.1876243,0.86105163 48.070276 0 0 0.2519531,-0.9375 c 0.00655,8.353e-4 0.01298,0.00316 0.019531,0.00391 0.054742,0.00629 0.1092535,0.00294 0.1640625,0 0.051211,-0.00286 0.1030173,-0.00471 0.1542966,-0.00586 0.017,-3.681e-4 0.03378,-7e-7 0.05078,0 0.0026,5.2e-6 0.0052,-6.7e-6 0.0078,0 v 0.00391 0.041016 c 0,0 0,0.00195 0,0.00195 0,0 0,0.00195 0,0.00195 -0.01158,0.074085 0.09337,0.092815 0.107422,0.017578 0.0012,-0.00723 0.0023,-0.014114 0.002,-0.021484 v -0.041016 -0.052734 c 0,-0.042023 -0.0291,-0.056378 -0.05859,-0.052734 -0.0047,-0.001 -0.0024,-0.00781 -0.0078,-0.00781 h -0.0039 c -0.0076,-8e-7 -0.01584,1.08e-5 -0.02344,0 -0.0079,-1.33e-5 -0.01554,1.49e-5 -0.02344,0 -0.01782,8e-7 -0.03687,-3.87e-4 -0.05469,0 -0.05241,0.00118 -0.1039043,0.00294 -0.15625,0.00586 -0.048757,0.00262 -0.097779,0.00546 -0.1464843,0 -0.024033,-0.00269 -0.048634,-0.00459 -0.072266,-0.00977 A 1.1876243,0.86105163 48.070276 0 0 9.4604398,6.4459646 1.1876243,0.86105163 48.070276 0 0 9.3120023,6.2760428 c 0.015088,-0.015048 0.030761,-0.029046 0.044922,-0.044922 0.037176,-0.043572 0.074753,-0.086779 0.1113281,-0.1308594 0.030335,-0.03606 0.060444,-0.072554 0.089844,-0.109375 0.019057,-0.023498 0.040766,-0.043485 0.0625,-0.064453 0.018774,0.045162 0.081059,0.056984 0.091797,-0.00586 3.3e-4,-0.00243 0.00123,-0.00351 0.00195,-0.00586 0.00391,-0.013865 0.0073,-0.028777 0.00977,-0.042969 0.00387,-0.019142 0.00832,-0.038923 0.00781,-0.058594 0,-0.054947 -0.046155,-0.056332 -0.078125,-0.033203 -0.00906,7.506e-4 -0.013642,-0.00998 -0.023437,-0.00391 -0.00567,0.00359 -0.0022,0.00212 -0.011719,0.00781 -0.018956,0.012992 -0.038274,0.026743 -0.054687,0.042969 -0.032559,0.03028 -0.06382,0.061061 -0.091797,0.095703 -0.02897,0.036288 -0.057992,0.07189 -0.087891,0.1074219 -0.035757,0.043107 -0.071108,0.086269 -0.1074218,0.1289062 -0.013453,0.015146 -0.02845,0.028779 -0.042969,0.042969 A 1.1876243,0.86105163 48.070276 0 0 8.6577055,5.8951834 c 0.00864,-0.00895 0.023437,-0.00845 0.023437,-0.025391 v -0.054688 -0.048828 -0.046875 c -0.00111,-0.013381 0.00193,-0.025907 0.00391,-0.039063 0.00256,-0.017679 0.00355,-0.036852 0.00391,-0.054687 0.00219,-0.0057 0.00281,-0.011438 0.00391,-0.017578 0.00212,-0.012045 -0.010258,-0.012693 -0.013672,-0.021484 0.011975,-0.026087 0.00617,-0.058515 -0.033203,-0.068359 -0.016264,-0.00377 -0.03253,-0.00431 -0.048828,-0.00781 -0.018623,-0.0033 -0.03605,-0.00848 -0.054687,-0.011719 -0.0076,-0.00211 -0.015757,-0.00408 -0.023437,-0.00586 -0.069975,-0.016156 -0.093412,0.083454 -0.023437,0.099609 0.00956,0.0022 0.019717,0.00376 0.029297,0.00586 0.017294,0.00291 0.033494,0.00877 0.050781,0.011719 0.00441,9.385e-4 0.00924,0.00119 0.013672,0.00195 -6.655e-4,0.00403 -0.00173,0.00761 -0.00195,0.011719 -2.599e-4,0.013479 -1.031e-4,0.027642 -0.00195,0.041016 -0.00267,0.018029 -0.00705,0.036341 -0.00586,0.054687 v 0.046875 0.048828 0.054688 c 0,0.00813 0.00941,0.00543 0.011719,0.011719 a 1.1876243,0.86105163 48.070276 0 0 -0.246112,-0.011719 0.328125,0.3203125 0 0 0 -0.3085938,-0.2128907 0.328125,0.3203125 0 0 0 -0.00391,0 V 5.6451834 5.5963552 5.5240896 5.483074 a 0.09375,0.0859375 0 0 1 0.00195,0 0.09375,0.0859375 0 0 0 0.087891,-0.085937 0.09375,0.0859375 0 0 0 -0.09375,-0.085937 0.09375,0.0859375 0 0 0 -0.00586,0 z M 7.5190336,5.7252615 a 0.08984375,0.08984375 0 0 0 -0.083984,0.089844 0.08984375,0.08984375 0 0 0 0.089844,0.089844 0.08984375,0.08984375 0 0 0 0.089844,-0.089844 0.08984375,0.08984375 0 0 0 -0.089844,-0.089844 0.08984375,0.08984375 0 0 0 -0.00586,0 z"
       id="bug"
       inkscape:connector-curvature="0" />
  </g>
</svg>
